<svg width="77" height="49" viewBox="0 0 77 49" fill="none" xmlns="http://www.w3.org/2000/svg">
<path d="M4.752 17.884C4.992 17.884 5.238 17.866 5.49 17.83C5.742 17.782 5.946 17.734 6.102 17.686V18.892C5.934 18.976 5.694 19.042 5.382 19.09C5.07 19.15 4.77 19.18 4.482 19.18C3.978 19.18 3.51 19.096 3.078 18.928C2.658 18.748 2.316 18.442 2.052 18.01C1.788 17.578 1.656 16.972 1.656 16.192V10.576H0.288V9.82L1.674 9.19L2.304 7.138H3.24V9.352H6.03V10.576H3.24V16.156C3.24 16.744 3.378 17.182 3.654 17.47C3.942 17.746 4.308 17.884 4.752 17.884ZM8.50191 9.352H10.1939L12.2819 14.842C12.4019 15.166 12.5099 15.478 12.6059 15.778C12.7139 16.078 12.8099 16.372 12.8939 16.66C12.9779 16.936 13.0439 17.206 13.0919 17.47H13.1639C13.2359 17.17 13.3499 16.78 13.5059 16.3C13.6619 15.808 13.8239 15.316 13.9919 14.824L15.9539 9.352H17.6639L13.5059 20.332C13.2779 20.932 13.0079 21.454 12.6959 21.898C12.3959 22.354 12.0239 22.702 11.5799 22.942C11.1479 23.194 10.6199 23.32 9.99591 23.32C9.70791 23.32 9.45591 23.302 9.23991 23.266C9.02391 23.242 8.83791 23.212 8.68191 23.176V21.916C8.81391 21.94 8.96991 21.964 9.14991 21.988C9.34191 22.012 9.53991 22.024 9.74391 22.024C10.1159 22.024 10.4339 21.952 10.6979 21.808C10.9739 21.676 11.2079 21.478 11.3999 21.214C11.5919 20.962 11.7539 20.662 11.8859 20.314L12.3899 19.036L8.50191 9.352ZM24.8237 9.19C25.9997 9.19 26.8697 9.448 27.4337 9.964C27.9977 10.48 28.2797 11.302 28.2797 12.43V19H27.1277L26.8217 17.632H26.7497C26.4737 17.98 26.1857 18.274 25.8857 18.514C25.5977 18.742 25.2617 18.91 24.8777 19.018C24.5057 19.126 24.0497 19.18 23.5097 19.18C22.9337 19.18 22.4117 19.078 21.9437 18.874C21.4877 18.67 21.1277 18.358 20.8637 17.938C20.5997 17.506 20.4677 16.966 20.4677 16.318C20.4677 15.358 20.8457 14.62 21.6017 14.104C22.3577 13.576 23.5217 13.288 25.0937 13.24L26.7317 13.186V12.61C26.7317 11.806 26.5577 11.248 26.2097 10.936C25.8617 10.624 25.3697 10.468 24.7337 10.468C24.2297 10.468 23.7497 10.546 23.2937 10.702C22.8377 10.846 22.4117 11.014 22.0157 11.206L21.5297 10.018C21.9497 9.79 22.4477 9.598 23.0237 9.442C23.5997 9.274 24.1997 9.19 24.8237 9.19ZM25.2917 14.338C24.0917 14.386 23.2577 14.578 22.7897 14.914C22.3337 15.25 22.1057 15.724 22.1057 16.336C22.1057 16.876 22.2677 17.272 22.5917 17.524C22.9277 17.776 23.3537 17.902 23.8697 17.902C24.6857 17.902 25.3637 17.68 25.9037 17.236C26.4437 16.78 26.7137 16.084 26.7137 15.148V14.284L25.2917 14.338ZM37.8835 9.172C39.0355 9.172 39.9055 9.454 40.4935 10.018C41.0815 10.57 41.3755 11.47 41.3755 12.718V19H39.8095V12.826C39.8095 12.046 39.6355 11.464 39.2875 11.08C38.9395 10.696 38.3935 10.504 37.6495 10.504C36.5815 10.504 35.8435 10.804 35.4355 11.404C35.0275 12.004 34.8235 12.868 34.8235 13.996V19H33.2395V9.352H34.5175L34.7515 10.666H34.8415C35.0575 10.33 35.3215 10.054 35.6335 9.838C35.9575 9.61 36.3115 9.442 36.6955 9.334C37.0795 9.226 37.4755 9.172 37.8835 9.172ZM49.7665 9.172C50.4025 9.172 50.9725 9.292 51.4765 9.532C51.9925 9.772 52.4305 10.138 52.7905 10.63H52.8805L53.0965 9.352H54.3565V19.162C54.3565 20.074 54.2005 20.836 53.8885 21.448C53.5765 22.072 53.1025 22.54 52.4665 22.852C51.8305 23.164 51.0205 23.32 50.0365 23.32C49.3405 23.32 48.6985 23.266 48.1105 23.158C47.5345 23.062 47.0185 22.912 46.5625 22.708V21.25C46.8745 21.406 47.2165 21.538 47.5885 21.646C47.9605 21.766 48.3625 21.856 48.7945 21.916C49.2265 21.976 49.6705 22.006 50.1265 22.006C50.9545 22.006 51.6025 21.76 52.0705 21.268C52.5505 20.788 52.7905 20.128 52.7905 19.288V18.91C52.7905 18.766 52.7965 18.562 52.8085 18.298C52.8205 18.022 52.8325 17.83 52.8445 17.722H52.7725C52.4365 18.214 52.0165 18.58 51.5125 18.82C51.0205 19.06 50.4445 19.18 49.7845 19.18C48.5365 19.18 47.5585 18.742 46.8505 17.866C46.1545 16.99 45.8065 15.766 45.8065 14.194C45.8065 13.162 45.9625 12.274 46.2745 11.53C46.5985 10.774 47.0545 10.192 47.6425 9.784C48.2305 9.376 48.9385 9.172 49.7665 9.172ZM49.9825 10.504C49.4425 10.504 48.9805 10.648 48.5965 10.936C48.2245 11.224 47.9365 11.644 47.7325 12.196C47.5405 12.748 47.4445 13.42 47.4445 14.212C47.4445 15.4 47.6605 16.312 48.0925 16.948C48.5365 17.572 49.1785 17.884 50.0185 17.884C50.5105 17.884 50.9305 17.824 51.2785 17.704C51.6265 17.572 51.9145 17.374 52.1425 17.11C52.3705 16.834 52.5385 16.486 52.6465 16.066C52.7545 15.646 52.8085 15.148 52.8085 14.572V14.194C52.8085 13.318 52.7065 12.61 52.5025 12.07C52.3105 11.53 52.0045 11.134 51.5845 10.882C51.1645 10.63 50.6305 10.504 49.9825 10.504Z" fill="black"/>
<path d="M51.0958 33.172C51.9238 33.172 52.6318 33.352 53.2198 33.712C53.8198 34.072 54.2758 34.582 54.5878 35.242C54.9118 35.89 55.0738 36.652 55.0738 37.528V38.482H48.4678C48.4918 39.574 48.7678 40.408 49.2958 40.984C49.8358 41.548 50.5858 41.83 51.5458 41.83C52.1578 41.83 52.6978 41.776 53.1658 41.668C53.6458 41.548 54.1378 41.38 54.6418 41.164V42.55C54.1498 42.766 53.6638 42.922 53.1838 43.018C52.7038 43.126 52.1338 43.18 51.4738 43.18C50.5618 43.18 49.7518 42.994 49.0438 42.622C48.3478 42.25 47.8018 41.698 47.4058 40.966C47.0218 40.222 46.8298 39.316 46.8298 38.248C46.8298 37.192 47.0038 36.286 47.3518 35.53C47.7118 34.774 48.2098 34.192 48.8458 33.784C49.4938 33.376 50.2438 33.172 51.0958 33.172ZM51.0778 34.468C50.3218 34.468 49.7218 34.714 49.2778 35.206C48.8458 35.686 48.5878 36.358 48.5038 37.222H53.4178C53.4178 36.67 53.3338 36.19 53.1658 35.782C52.9978 35.374 52.7398 35.056 52.3918 34.828C52.0558 34.588 51.6178 34.468 51.0778 34.468Z" fill="black"/>
<line y1="37.5" x2="42" y2="37.5" stroke="black" stroke-width="3"/>
</svg>
